<svg width="375" height="274" viewBox="0 0 375 274" fill="none" xmlns="http://www.w3.org/2000/svg">
<mask id="path-1-outside-1_603_124" maskUnits="userSpaceOnUse" x="-2" y="0.171143" width="379" height="276" fill="black">
<rect fill="white" x="-2" y="0.171143" width="379" height="276"/>
<path fill-rule="evenodd" clip-rule="evenodd" d="M187.5 48.3359C204.897 48.3359 219 32.7351 219 13.4907C219 9.89789 218.508 6.43212 217.596 3.17114C308.891 10.9717 375 51.3528 375 51.3528V234C375 256.091 357.091 274 335 274H40C17.9086 274 0 256.091 0 234V51.3528C0 51.3528 66.1086 10.9717 157.404 3.17114C156.492 6.43212 156 9.89789 156 13.4907C156 32.7351 170.103 48.3359 187.5 48.3359Z"/>
</mask>
<path fill-rule="evenodd" clip-rule="evenodd" d="M187.5 48.3359C204.897 48.3359 219 32.7351 219 13.4907C219 9.89789 218.508 6.43212 217.596 3.17114C308.891 10.9717 375 51.3528 375 51.3528V234C375 256.091 357.091 274 335 274H40C17.9086 274 0 256.091 0 234V51.3528C0 51.3528 66.1086 10.9717 157.404 3.17114C156.492 6.43212 156 9.89789 156 13.4907C156 32.7351 170.103 48.3359 187.5 48.3359Z" fill="url(#paint0_linear_603_124)"/>
<path d="M217.596 3.17114L217.766 1.1784L214.892 0.932873L215.67 3.71023L217.596 3.17114ZM375 51.3528H377V50.2308L376.043 49.646L375 51.3528ZM0 51.3528L-1.04255 49.646L-2 50.2308V51.3528H0ZM157.404 3.17114L159.33 3.71023L160.108 0.932873L157.234 1.1784L157.404 3.17114ZM217 13.4907C217 31.8253 203.607 46.3359 187.5 46.3359V50.3359C206.187 50.3359 221 33.645 221 13.4907H217ZM215.67 3.71023C216.534 6.79626 217 10.0807 217 13.4907H221C221 9.7151 220.483 6.06798 219.522 2.63206L215.67 3.71023ZM217.425 5.16388C262.829 9.0433 301.986 21.027 329.797 32.0465C343.699 37.555 354.757 42.8189 362.332 46.7012C366.119 48.6422 369.035 50.2374 370.999 51.3447C371.981 51.8983 372.725 52.3299 373.222 52.6216C373.47 52.7675 373.656 52.8784 373.779 52.9521C373.841 52.989 373.887 53.0166 373.916 53.0346C373.931 53.0436 373.942 53.0502 373.949 53.0543C373.952 53.0564 373.955 53.0579 373.956 53.0588C373.957 53.0592 373.957 53.0594 373.958 53.0596C373.958 53.0597 373.957 53.0595 375 51.3528C376.043 49.646 376.042 49.6456 376.041 49.645C376.04 49.6446 376.039 49.6439 376.038 49.6431C376.035 49.6415 376.032 49.6393 376.027 49.6365C376.018 49.6309 376.004 49.6228 375.987 49.6124C375.953 49.5915 375.902 49.561 375.836 49.5212C375.703 49.4417 375.507 49.3249 375.249 49.1731C374.732 48.8695 373.967 48.4259 372.963 47.8601C370.956 46.7285 367.993 45.1081 364.156 43.1415C356.483 39.2085 345.307 33.8896 331.27 28.3278C303.203 17.2066 263.658 5.09952 217.766 1.1784L217.425 5.16388ZM373 51.3528V234H377V51.3528H373ZM373 234C373 254.987 355.987 272 335 272V276C358.196 276 377 257.196 377 234H373ZM335 272H40V276H335V272ZM40 272C19.0132 272 2 254.987 2 234H-2C-2 257.196 16.804 276 40 276V272ZM2 234V51.3528H-2V234H2ZM0 51.3528C1.04255 53.0595 1.04236 53.0597 1.04242 53.0596C1.04278 53.0594 1.0431 53.0592 1.04381 53.0588C1.04523 53.0579 1.04766 53.0564 1.0511 53.0543C1.05796 53.0502 1.06884 53.0436 1.08371 53.0346C1.11344 53.0166 1.15914 52.989 1.22064 52.9521C1.34365 52.8784 1.52988 52.7675 1.77808 52.6216C2.2745 52.3299 3.01879 51.8983 4.00097 51.3447C5.96537 50.2374 8.88107 48.6422 12.6682 46.7012C20.2429 42.8189 31.3008 37.555 45.203 32.0465C73.0139 21.027 112.171 9.0433 157.575 5.16388L157.234 1.1784C111.342 5.09952 71.7969 17.2066 43.7295 28.3278C29.6926 33.8896 18.5174 39.2085 10.8437 43.1415C7.00669 45.1081 4.0444 46.7285 2.03686 47.8601C1.03307 48.4259 0.267903 48.8695 -0.248645 49.1731C-0.506922 49.3249 -0.703051 49.4417 -0.835783 49.5212C-0.902149 49.561 -0.952666 49.5915 -0.987179 49.6124C-1.00444 49.6228 -1.01769 49.6309 -1.02693 49.6365C-1.03154 49.6393 -1.03516 49.6415 -1.03776 49.6431C-1.03906 49.6439 -1.04026 49.6446 -1.04091 49.645C-1.04186 49.6456 -1.04255 49.646 0 51.3528ZM158 13.4907C158 10.0807 158.466 6.79626 159.33 3.71023L155.478 2.63206C154.517 6.06798 154 9.7151 154 13.4907H158ZM187.5 46.3359C171.393 46.3359 158 31.8253 158 13.4907H154C154 33.645 168.813 50.3359 187.5 50.3359V46.3359Z" fill="url(#paint1_linear_603_124)" mask="url(#path-1-outside-1_603_124)"/>
<defs>
<linearGradient id="paint0_linear_603_124" x1="-193.125" y1="-351.886" x2="-54.7359" y2="350.538" gradientUnits="userSpaceOnUse">
<stop stop-color="white"/>
<stop offset="1" stop-color="white" stop-opacity="0"/>
</linearGradient>
<linearGradient id="paint1_linear_603_124" x1="285" y1="274" x2="209.261" y2="-45.5075" gradientUnits="userSpaceOnUse">
<stop stop-color="white" stop-opacity="0.2"/>
<stop offset="1" stop-color="white" stop-opacity="0"/>
</linearGradient>
</defs>
</svg>
